<?xml version="1.0" encoding="utf-8"?>
<!-- Generator: Adobe Illustrator 24.3.0, SVG Export Plug-In . SVG Version: 6.00 Build 0)  -->
<svg version="1.1" id="Layer_1" focusable="false" xmlns="http://www.w3.org/2000/svg" xmlns:xlink="http://www.w3.org/1999/xlink"
	 x="0px" y="0px" viewBox="0 0 834 509" style="enable-background:new 0 0 834 509;" xml:space="preserve">
<style type="text/css">
	.st0{fill:#112D4E;}
	.st1{fill:#3F72AF;}
</style>
<path class="st0" d="M731.6,194.6c4.1-10.7,6.4-22.4,6.4-34.6c0-53-43-96-96-96c-19.7,0-38.1,6-53.3,16.2C561,32.2,509.3,0,450,0
	c-88.4,0-160,71.6-160,160c0,2.7,0.1,5.4,0.2,8.1c-56,19.7-96.2,73.1-96.2,135.9c0,79.5,64.5,144,144,144h368
	c70.7,0,128-57.3,128-128C834,258.1,790,206.4,731.6,194.6z"/>
<path class="st1" d="M537.6,255.6c4.1-10.7,6.4-22.4,6.4-34.6c0-53-43-96-96-96c-19.7,0-38.1,6-53.3,16.2C367,93.2,315.3,61,256,61
	c-88.4,0-160,71.6-160,160c0,2.7,0.1,5.4,0.2,8.1C40.2,248.8,0,302.2,0,365c0,79.5,64.5,144,144,144h368c70.7,0,128-57.3,128-128
	C640,319.1,596,267.4,537.6,255.6z"/>
</svg>
