<?xml version="1.0" encoding="utf-8"?>
<!-- Generator: Adobe Illustrator 24.3.0, SVG Export Plug-In . SVG Version: 6.00 Build 0)  -->
<svg version="1.1" id="Layer_1" focusable="false" xmlns="http://www.w3.org/2000/svg" xmlns:xlink="http://www.w3.org/1999/xlink"
	 x="0px" y="0px" viewBox="0 0 569.5 687.7" style="enable-background:new 0 0 569.5 687.7;" xml:space="preserve">
<style type="text/css">
	.st0{fill:#112D4E;}
	.st1{fill:#3F72AF;}
</style>
<path class="st0" d="M186.9,545.8c-7.6-4.4-17.4-1.8-21.8,6l-64,112c-4.4,7.7-1.7,17.5,6,21.8c2.5,1.4,5.2,2.1,7.9,2.1
	c5.5,0,10.9-2.9,13.9-8.1l64-112C197.3,560,194.6,550.2,186.9,545.8z M282.9,545.8c-7.6-4.4-17.4-1.8-21.8,6l-64,112
	c-4.4,7.7-1.7,17.5,6,21.8c2.5,1.4,5.2,2.1,7.9,2.1c5.5,0,10.9-2.9,13.9-8.1l64-112C293.3,560,290.6,550.2,282.9,545.8z M90.9,545.8
	c-7.6-4.4-17.4-1.8-21.8,6l-64,112c-4.4,7.7-1.7,17.5,6,21.8c2.5,1.4,5.2,2.1,7.9,2.1c5.5,0,10.9-2.9,13.9-8.1l64-112
	C101.3,560,98.6,550.2,90.9,545.8z M378.9,545.8c-7.6-4.4-17.4-1.8-21.8,6l-64,112c-4.4,7.7-1.7,17.5,6,21.8
	c2.5,1.4,5.2,2.1,7.9,2.1c5.5,0,10.9-2.9,13.9-8.1l64-112C389.3,560,386.6,550.2,378.9,545.8z M342.6,348.4
	c5.7-9.6,9.2-20.7,9.2-32.7c0-35.3-28.7-64-64-64c-17.2,0-32.8,6.9-44.3,17.9c-16.3-29.6-47.5-49.9-83.7-49.9c-53,0-96,43-96,96
	c0,2,0.5,3.8,0.6,5.7c-37.5,13.1-64.6,48.4-64.6,90.3c0,53,43,96,96,96h240c44.2,0,80-35.8,80-80
	C415.8,385.8,383.5,351.9,342.6,348.4z"/>
<path class="st1" d="M558.7,298.4c-93.1,17.7-178.5-53.7-178.5-147.7c0-54.2,29-104,76.1-130.8c7.3-4.1,5.4-15.1-2.8-16.7
	C441.8,1.1,430.1,0,418.4,0C312.5,0,226.5,85.9,226.5,192c0,8.5,0.7,16.8,1.8,25c5.9,4.3,11.6,8.9,16.7,14.2
	c11.4-4.7,23.7-7.2,36.4-7.2c52.9,0,96,43.1,96,96c0,3.6-0.2,7.2-0.6,10.7c23.6,10.8,42.4,29.5,53.5,52.6
	c54.4-3.4,103.7-29.3,137.1-70.4C572.7,306.4,566.9,296.8,558.7,298.4z"/>
</svg>
