<?xml version="1.0" encoding="utf-8"?>
<!-- Generator: Adobe Illustrator 24.3.0, SVG Export Plug-In . SVG Version: 6.00 Build 0)  -->
<svg version="1.1" id="Layer_1" focusable="false" xmlns="http://www.w3.org/2000/svg" xmlns:xlink="http://www.w3.org/1999/xlink"
	 x="0px" y="0px" viewBox="0 0 578.8 793.9" style="enable-background:new 0 0 578.8 793.9;" xml:space="preserve">
<style type="text/css">
	.st0{fill:#3F72AF;}
	.st1{fill:#112D4E;}
</style>
<path class="st0" d="M564.5,397.9c-124.2,23.7-238.3-71.6-238.3-197c0-72.2,38.7-138.6,101.5-174.4C437.4,21,435,6.3,424,4.3
	C408.6,1.4,392.9,0,377.2,0c-141.3,0-256,114.5-256,256c0,2.3,0,4.7,0.1,7H230c15.7,0,27.2,15,23.2,30.2L210.6,423H326
	c18.5,0,30,20.1,20.7,36l-26.9,46.5c18.5,4.2,37.7,6.5,57.4,6.5c79,0,151.1-35.9,198.9-94.8C583.1,408.5,575.4,395.8,564.5,397.9z"
	/>
<path class="st1" d="M296,441.9H180.6l42.6-129.8c4-15.2-7.5-30.2-23.2-30.2H56c-12,0-22.2,8.9-23.8,20.8l-32,240
	c-1.9,14.4,9.3,27.2,23.8,27.2h118.7L96.6,764.4c-3.6,15.2,8,29.5,23.3,29.5c8.4,0,16.4-4.4,20.8-12l176-304
	C326,462,314.5,441.9,296,441.9z"/>
</svg>
